<svg width="122" height="130" viewBox="0 0 122 130" fill="none" xmlns="http://www.w3.org/2000/svg">
<path d="M70.5015 1.08714C70.5015 0.489035 70.0119 0 69.4131 0H52.0074C51.4086 0 50.9189 0.489035 50.9189 1.08714V19.5843H70.5032V1.08714H70.5015Z" fill="#FF6542"/>
<path d="M121.423 20.6038V36.9076C121.423 37.4678 120.956 37.9258 120.385 37.9258H116.68C113.503 37.9258 110.836 40.2702 110.494 43.3675C110.494 43.3675 106.29 80.3873 106.29 80.407C105.034 91.5031 99.4591 101.286 90.9888 108.642C82.2266 116.25 71.3884 120.442 63.1531 128.641C62.7638 129.03 62.2368 129.256 61.6813 129.256H59.7429C59.1874 129.256 58.6604 129.03 58.2711 128.641C50.0358 120.44 39.1976 116.25 30.4353 108.642C21.9651 101.286 16.3916 91.5031 15.1363 80.407C15.1363 80.3873 10.9322 43.3675 10.9322 43.3675C10.5899 40.2702 7.92141 37.9258 4.74614 37.9258H1.03717C0.466558 37.9258 0 37.4678 0 36.9076V20.6038C0 20.0436 0.466558 19.5856 1.03717 19.5856H51.37V29.2763C51.37 31.222 50.2389 32.9948 48.4633 33.8515L28.69 43.3791C25.1924 45.0595 23.1584 48.7187 23.583 52.5195L23.6149 52.7633C24.4087 58.991 31.2141 62.5974 36.9521 59.8312L50.6232 53.2428C50.9656 53.0797 51.37 53.3235 51.37 53.7008V58.1837C51.37 60.1294 50.2389 61.9038 48.4633 62.7588L32.4778 70.4511C26.7801 73.2024 25.6892 80.6921 30.3397 84.9311C30.5881 85.1552 30.8281 85.3694 31.0764 85.5835L31.1184 85.6247C33.8271 87.9378 37.709 88.3662 40.9379 86.8175L45.142 84.7894L49.8747 82.5175C50.5594 82.1814 51.37 82.6707 51.37 83.4236V96.0074C51.37 98.5347 52.4189 100.838 54.1106 102.487C55.7604 104.107 58.0244 105.126 60.535 105.177C65.7662 105.27 70.0525 100.826 70.0525 95.6911V83.422C70.0525 82.6674 70.8614 82.1781 71.5478 82.5159L76.2805 84.7878L80.4846 86.8159C83.7119 88.3646 87.5954 87.9362 90.3041 85.6231L90.3461 85.5819C90.5945 85.3677 90.8344 85.1535 91.0828 84.9295C95.7333 80.6904 94.6424 73.2008 88.9447 70.4494L72.9592 62.7572C71.1836 61.9005 70.0525 60.1277 70.0525 58.182V53.6991C70.0525 53.3219 70.4569 53.078 70.7993 53.2411L84.4705 59.8295C90.2085 62.5957 97.0138 58.9893 97.8076 52.7617L97.8395 52.5179C98.2658 48.717 96.2301 45.0596 92.7326 43.3774L72.9592 33.8498C71.1836 32.9931 70.0525 31.2204 70.0525 29.2747V19.584H120.384C120.954 19.584 121.421 20.042 121.421 20.6022L121.423 20.6038Z" fill="#FF6542"/>
</svg>
